<svg width="1000" height="380" viewBox="0 0 1000 380" xmlns="http://www.w3.org/2000/svg" role="img" aria-label="OSYNA — data and process engineering">
  <style>@import url('https://fonts.googleapis.com/css2?family=JetBrains+Mono:wght@400;500;600;700&amp;display=swap');</style>
  <defs>
    <linearGradient id="bgGrad" x1="0" y1="0" x2="1" y2="1">
      <stop offset="0%" stop-color="#ffffff"/>
      <stop offset="100%" stop-color="#f7faf2"/>
    </linearGradient>
    <filter id="glow" x="-60%" y="-60%" width="220%" height="220%">
      <feGaussianBlur stdDeviation="5" result="b"/>
      <feMerge><feMergeNode in="b"/><feMergeNode in="SourceGraphic"/></feMerge>
    </filter>
  </defs>

  <rect width="1000" height="380" rx="14" fill="url(#bgGrad)"/>
  <rect x="0.75" y="0.75" width="998.5" height="378.5" rx="13.5" fill="none" stroke="#dfe3e0"/>

  <!-- converging data-flow lines behind the wordmark -->
  <g><path d="M 0,22 C 16.3,22 27.9,75.0 34,90" fill="none" stroke="#6d8a4f" stroke-width="1.1" stroke-opacity="0.12" stroke-dasharray="5 12">
        <animate attributeName="stroke-dashoffset" from="0" to="-340" dur="7.0s" repeatCount="indefinite"/>
      </path><path d="M 0,42 C 16.3,42 27.9,79.4 34,90" fill="none" stroke="#6d8a4f" stroke-width="1.1" stroke-opacity="0.19" stroke-dasharray="5 12">
        <animate attributeName="stroke-dashoffset" from="0" to="-340" dur="8.1s" repeatCount="indefinite"/>
      </path><path d="M 0,62 C 16.3,62 27.9,83.8 34,90" fill="none" stroke="#6d8a4f" stroke-width="1.1" stroke-opacity="0.26" stroke-dasharray="5 12">
        <animate attributeName="stroke-dashoffset" from="0" to="-340" dur="9.2s" repeatCount="indefinite"/>
      </path><path d="M 0,82 C 16.3,82 27.9,88.2 34,90" fill="none" stroke="#6d8a4f" stroke-width="1.1" stroke-opacity="0.12" stroke-dasharray="5 12">
        <animate attributeName="stroke-dashoffset" from="0" to="-340" dur="10.3s" repeatCount="indefinite"/>
      </path><path d="M 0,102 C 16.3,102 27.9,92.6 34,90" fill="none" stroke="#6d8a4f" stroke-width="1.1" stroke-opacity="0.19" stroke-dasharray="5 12">
        <animate attributeName="stroke-dashoffset" from="0" to="-340" dur="11.4s" repeatCount="indefinite"/>
      </path><path d="M 0,122 C 16.3,122 27.9,97.0 34,90" fill="none" stroke="#6d8a4f" stroke-width="1.1" stroke-opacity="0.26" stroke-dasharray="5 12">
        <animate attributeName="stroke-dashoffset" from="0" to="-340" dur="12.5s" repeatCount="indefinite"/>
      </path><path d="M 0,142 C 16.3,142 27.9,101.4 34,90" fill="none" stroke="#6d8a4f" stroke-width="1.1" stroke-opacity="0.12" stroke-dasharray="5 12">
        <animate attributeName="stroke-dashoffset" from="0" to="-340" dur="13.6s" repeatCount="indefinite"/>
      </path><path d="M 0,162 C 16.3,162 27.9,105.8 34,90" fill="none" stroke="#6d8a4f" stroke-width="1.1" stroke-opacity="0.19" stroke-dasharray="5 12">
        <animate attributeName="stroke-dashoffset" from="0" to="-340" dur="14.7s" repeatCount="indefinite"/>
      </path></g>

  <!-- title bar -->
  <circle cx="28" cy="28" r="5" fill="#dfe3e0"/>
  <circle cx="46" cy="28" r="5" fill="#dfe3e0"/>
  <circle cx="64" cy="28" r="5" fill="#dfe3e0"/>
  <text x="86" y="33" font-family="'JetBrains Mono', ui-monospace, Menlo, Consolas, monospace" font-size="13" fill="#666f77">irvin@osyna:~$ whoami<tspan fill="#5b7a3f">_<animate attributeName="opacity" values="1;1;0;0;1" keyTimes="0;0.45;0.5;0.95;1" dur="1.2s" repeatCount="indefinite"/></tspan></text>
  <text x="976" y="33" text-anchor="end" font-family="'JetBrains Mono', ui-monospace, Menlo, Consolas, monospace" font-size="11" fill="#666f77">SYNCED 2026-08-23 05:44 UTC</text>

  <!-- wordmark -->
  <text x="38" y="112" font-family="'JetBrains Mono', ui-monospace, Menlo, Consolas, monospace" font-size="58" font-weight="700" letter-spacing="4" fill="#14171a">OSYNA</text>
  <text x="42" y="136" font-family="'JetBrains Mono', ui-monospace, Menlo, Consolas, monospace" font-size="12" letter-spacing="2" fill="#666f77">DATA ALCHEMIST · FREELANCE · BRUSSELS, BE</text>
  
    <clipPath id="tw-light">
      <rect x="42" y="145.3" width="0" height="18.900000000000002">
        <animate attributeName="width" values="0.0;8.7;17.5;26.2;34.9;43.7;52.4;61.1;69.9;78.6;87.3;96.1;104.8;113.5;122.3;131.0;139.7;148.5;157.2;165.9;174.7;183.4;192.1;200.9;209.6;218.3;227.1;235.8;244.5;253.3;262.0;270.7;279.5;288.2;296.9;305.7;314.4;323.1;331.9;340.6;349.3;358.1;366.8;366.8" keyTimes="0.0000;0.0171;0.0343;0.0514;0.0686;0.0857;0.1029;0.1200;0.1371;0.1543;0.1714;0.1886;0.2057;0.2229;0.2400;0.2571;0.2743;0.2914;0.3086;0.3257;0.3429;0.3600;0.3771;0.3943;0.4114;0.4286;0.4457;0.4629;0.4800;0.4971;0.5143;0.5314;0.5486;0.5657;0.5829;0.6000;0.6171;0.6343;0.6514;0.6686;0.6857;0.7029;0.7200;1" dur="4.92s" begin="0s" repeatCount="indefinite" calcMode="discrete"/>
      </rect>
    </clipPath>
    <text x="42" y="160" font-family="'JetBrains Mono', ui-monospace, Menlo, Consolas, monospace" font-size="14" fill="#5b7a3f" clip-path="url(#tw-light)">Turning complex data into golden insights.</text>

  <line x1="30" y1="188" x2="970" y2="188" stroke="#dfe3e0"/>

  <!-- stats -->
  <g font-family="'JetBrains Mono', ui-monospace, Menlo, Consolas, monospace">
    
      <text x="40" y="222" font-size="10" letter-spacing="1.5" fill="#666f77">REPOS</text>
      <text x="40" y="248" font-size="22" font-weight="600" fill="#14171a">23</text>
      
      <text x="170" y="222" font-size="10" letter-spacing="1.5" fill="#666f77">STARS</text>
      <text x="170" y="248" font-size="22" font-weight="600" fill="#14171a">★ 38</text>
      <line x1="105" y1="200" x2="105" y2="248" stroke="#dfe3e0"/>
      <text x="300" y="222" font-size="10" letter-spacing="1.5" fill="#666f77">DL/MO</text>
      <text x="300" y="248" font-size="22" font-weight="600" fill="#14171a">6,022</text>
      <line x1="235" y1="200" x2="235" y2="248" stroke="#dfe3e0"/>
      <text x="430" y="222" font-size="10" letter-spacing="1.5" fill="#666f77">ACTIVE SINCE</text>
      <text x="430" y="248" font-size="22" font-weight="600" fill="#14171a">2014</text>
      <line x1="365" y1="200" x2="365" y2="248" stroke="#dfe3e0"/>
    <circle cx="568" cy="216" r="4" fill="#5b7a3f">
      <animate attributeName="opacity" values="1;0.35;1" dur="2.2s" repeatCount="indefinite"/>
    </circle>
    <text x="580" y="220" font-size="10" letter-spacing="1.5" fill="#666f77">STATUS</text>
    <text x="580" y="243" font-size="15" font-weight="600" fill="#5b7a3f">AVAILABLE</text>
    <line x1="495" y1="200" x2="495" y2="248" stroke="#dfe3e0"/>
  </g>

  <line x1="30" y1="266" x2="970" y2="266" stroke="#dfe3e0"/>

  <!-- sparkline: tanuki-context npm downloads -->
  <text x="40" y="288" font-family="'JetBrains Mono', ui-monospace, Menlo, Consolas, monospace" font-size="10" letter-spacing="1" fill="#666f77">TANUKI-CONTEXT · NPM DOWNLOADS · 30D</text>
  <text x="960" y="288" text-anchor="end" font-family="'JetBrains Mono', ui-monospace, Menlo, Consolas, monospace" font-size="10" fill="#666f77">PEAK 1,471/DAY</text>
  <path d="M630.0,331.9 L641.4,332.0 L652.8,332.0 L664.1,301.6 L675.5,305.9 L686.9,298.0 L698.3,314.5 L709.7,326.5 L721.0,326.4 L732.4,327.8 L743.8,330.8 L755.2,329.6 L766.6,330.7 L777.9,331.6 L789.3,331.9 L800.7,331.1 L812.1,331.8 L823.4,331.9 L834.8,331.8 L846.2,331.0 L857.6,326.0 L869.0,331.9 L880.3,332.0 L891.7,331.8 L903.1,331.8 L914.5,332.0 L925.9,330.9 L937.2,331.9 L948.6,331.9 L960.0,332.0 L960.0,332.0 L630.0,332.0 Z" fill="#5b7a3f" opacity="0.12"/>
  <path d="M630.0,331.9 L641.4,332.0 L652.8,332.0 L664.1,301.6 L675.5,305.9 L686.9,298.0 L698.3,314.5 L709.7,326.5 L721.0,326.4 L732.4,327.8 L743.8,330.8 L755.2,329.6 L766.6,330.7 L777.9,331.6 L789.3,331.9 L800.7,331.1 L812.1,331.8 L823.4,331.9 L834.8,331.8 L846.2,331.0 L857.6,326.0 L869.0,331.9 L880.3,332.0 L891.7,331.8 L903.1,331.8 L914.5,332.0 L925.9,330.9 L937.2,331.9 L948.6,331.9 L960.0,332.0" fill="none" stroke="#5b7a3f" stroke-width="2" stroke-linecap="round" stroke-linejoin="round" pathLength="1000" stroke-dasharray="1000" stroke-dashoffset="1000">
    <animate attributeName="stroke-dashoffset" from="1000" to="0" dur="1.8s" fill="freeze" begin="0.2s"/>
  </path>

  <!-- footer marquee -->
  <rect x="0" y="340" width="1000" height="40" fill="#f2f6ea"/>
  <line x1="0" y1="340" x2="1000" y2="340" stroke="#dfe3e0"/>
  
    <clipPath id="marqueeClip"><rect x="30" y="352" width="940" height="20.8"/></clipPath>
    <g clip-path="url(#marqueeClip)">
      <g font-family="'JetBrains Mono', ui-monospace, Menlo, Consolas, monospace" font-size="13" fill="#666f77">
        <text x="30" y="365">PYTHON   ·   RUST   ·   SQL   ·   ETL / ELT   ·   POLARS   ·   APACHE SPARK   ·   SYBASE IQ   ·   AWS   ·   AZURE   ·   DOCKER   ·   RAG   ·   MODEL CONTEXT PROTOCOL   ·   CUDA / ROCM   ·   REVERSE ENGINEERING   ·   PYTHON   ·   RUST   ·   SQL   ·   ETL / ELT   ·   POLARS   ·   APACHE SPARK   ·   SYBASE IQ   ·   AWS   ·   AZURE   ·   DOCKER   ·   RAG   ·   MODEL CONTEXT PROTOCOL   ·   CUDA / ROCM   ·   REVERSE ENGINEERING   ·   
          <animate attributeName="x" from="30" to="-1654.8" dur="30.6s" repeatCount="indefinite"/>
        </text>
      </g>
    </g>
</svg>